<?xml version="1.0" encoding="utf-8"?>
<!-- Generator: Adobe Illustrator 23.0.4, SVG Export Plug-In . SVG Version: 6.00 Build 0)  -->
<svg version="1.1" id="Capa_1" xmlns="http://www.w3.org/2000/svg" xmlns:xlink="http://www.w3.org/1999/xlink" x="0px" y="0px"
	 viewBox="0 0 433.6 433.6" style="enable-background:new 0 0 433.6 433.6;" xml:space="preserve">
<style type="text/css">
	.st0{fill:#E0E0E0;}
</style>
<g>
	<g>
		<g>
			<path class="st0" d="M388.7,47c-0.9,0-1.8,0-2.7,0h-33.4V18.3c0-11.5-11-18.3-22.5-18.3h-30.8c-11.5,0-19.9,6.8-19.9,18.3V47
				H154.1V18.3c0-11.5-8.4-18.3-19.9-18.3h-30.8C92,0,81,6.8,81,18.3V47H47.5C26.2,46.4,8.4,63.2,7.8,84.6c0,0.9,0,1.8,0,2.7v302
				c0,23,16.7,44.4,39.7,44.4h338.5c23,0,39.7-21.4,39.7-44.4v-302C426.7,65.9,410.1,47.9,388.7,47z M299.4,20.9h32.4v57.5h-32.4
				V20.9z M103.4,20.9h29.8v57.5h-29.8C103.4,78.4,103.4,20.9,103.4,20.9z M404.9,389.2c0,11.5-7.3,23.5-18.8,23.5H47.5
				c-11.5,0-18.8-12-18.8-23.5v-222h376.2L404.9,389.2L404.9,389.2z M404.9,87.2v59H28.7v-59c-0.9-9.8,6.3-18.4,16.1-19.3
				c0.9-0.1,1.8-0.1,2.7,0H81v11.5c0,11.5,11,19.9,22.5,19.9h30.8c10.7,0.3,19.6-8.1,19.9-18.8c0-0.4,0-0.7,0-1.1V67.9h125.4v11.5
				c-0.3,10.7,8.1,19.6,18.8,19.9c0.4,0,0.7,0,1.1,0h30.8c11.5,0,22.5-8.4,22.5-19.9V67.9h33.4c9.8-0.6,18.2,6.8,18.8,16.6
				C405,85.4,405,86.3,404.9,87.2z"/>
			<path class="st0" d="M158.8,309.8l-9.4,52.2c-0.4,2.2,0,4.5,1,6.6c2.7,5.1,9,7.1,14.1,4.4l47-24.6l47,24.6l4.7,1
				c2.3,0,4.5-0.7,6.3-2.1c3.1-2.3,4.7-6.1,4.2-9.9l-9.4-52.2l38.1-36.6c2.7-2.9,3.7-7.1,2.6-11c-1.4-3.6-4.6-6.1-8.4-6.8l-52.2-7.8
				L221,200.1c-1-2.1-2.7-3.8-4.8-4.8c-5.2-2.5-11.4-0.3-14,4.8l-23.5,47.5l-52.2,7.8c-3.8,0.6-7,3.2-8.4,6.8c-1.1,3.9-0.1,8,2.6,11
				L158.8,309.8z M187.6,267.5c3.3-0.5,6.1-2.7,7.3-5.7l16.7-33.4l16.7,33.4c1.3,3.1,4,5.3,7.3,5.7l37.1,5.2l-26.6,25.6
				c-2.5,2.5-3.6,5.9-3.1,9.4l6.3,37.1l-32.9-17.8l-4.7-1l-4.7,1L174,344.8l6.3-37.1c0.5-3.5-0.7-6.9-3.1-9.4l-26.6-25.6
				L187.6,267.5z"/>
		</g>
	</g>
</g>
</svg>
